<svg width="70" height="120" viewBox="0 0 70 120" fill="none" xmlns="http://www.w3.org/2000/svg">
<path d="M69.2412 118.807C68.1739 113.861 66.3506 109.095 63.9493 104.644C63.1043 103.116 62.1705 101.587 61.1921 100.148C59.9915 107.027 47.0063 110.04 41.7144 110.085C37.4453 110.129 33.0872 109.545 28.996 108.376C27.1283 107.836 25.394 107.027 23.5707 106.398C22.4145 105.993 21.8364 105.723 21.5251 105.184C20.7691 106.443 20.5912 108.241 19.9687 110.579C18.5901 115.75 17.4783 120.965 16.5889 126.225C15.9219 130.182 15.3883 134.139 14.988 138.14H71.8204C71.5091 131.621 70.6197 125.146 69.2412 118.807Z" fill="#0D046D"/>
<path d="M39.4465 110.084C38.646 118.986 38.735 129.237 38.9129 138.184" stroke="white" stroke-width="1.3" stroke-miterlimit="10" stroke-linecap="round"/>
<path d="M17.6562 120.38C22.2366 119.211 26.2834 116.153 28.6403 112.017" stroke="white" stroke-width="1.3" stroke-miterlimit="10" stroke-linecap="round"/>
<path d="M60.9253 104.914C65.9949 115.075 66.4396 126.9 66.7953 138.275" stroke="white" stroke-width="1.3" stroke-miterlimit="10" stroke-linecap="round"/>
<path d="M51.7202 110.849C51.8981 111.568 52.3428 112.152 52.832 112.737C55.9004 116.424 60.4363 118.852 65.1501 119.436" stroke="white" stroke-width="1.3" stroke-miterlimit="10" stroke-linecap="round"/>
<path d="M42.0703 110.354C42.1148 113.456 42.1592 116.648 41.4033 119.661C41.003 121.279 40.247 122.943 38.7795 123.617" stroke="white" stroke-width="1.3" stroke-miterlimit="10" stroke-linecap="round"/>
<path d="M66.5347 15.4555C64.4097 10.0569 62.3605 4.77837 56.8414 1.94738C54.5302 0.766876 51.972 0.250921 49.3826 0.345324C46.3386 -0.280324 43.1772 -0.273938 40.2546 0.506694C36.7389 1.48268 33.7128 4.60667 31.8416 7.95032C30.2704 10.1063 29.1098 12.6225 28.0888 14.7793C27.6051 15.7814 27.0892 16.838 26.6055 17.8401C25.0146 21.0206 23.4023 24.2992 22.6103 27.7425C22.0751 30.009 21.8008 33.3222 23.317 36.2783C24.1293 37.8818 25.4157 39.1807 26.7881 40.2727C27.3612 40.9166 27.9988 41.4516 28.6795 41.9758C30.7541 43.4938 33.119 44.5218 35.4945 45.4081C42.3294 48.0012 49.8104 49.8758 57.156 48.6328C59.7016 48.1786 62.7119 48.1175 64.7696 46.4418C67.2798 44.3744 69.0005 41.3466 69.7714 38.1867C69.9857 37.3913 70.1137 36.6176 70.2309 35.8003C70.6882 32.302 70.293 28.6935 69.5635 25.2154C68.7804 21.8897 67.7815 18.6183 66.5347 15.4555ZM27.8815 19.2807C26.5813 22.1565 25.3134 24.9778 24.4885 28.1049C23.8351 30.6328 23.4085 33.3354 24.1363 35.8871C24.3642 36.6177 24.6894 37.3702 25.0359 38.0247C24.5168 37.4136 24.03 36.748 23.6726 36.0499C22.2431 33.2574 22.5391 30.0314 23.0098 27.8739C23.8127 24.4742 25.425 21.1956 26.9836 18.0695C27.4673 17.0674 27.9832 16.0108 28.4669 15.0087C29.0901 13.6471 29.8102 12.1221 30.6383 10.6627C29.6509 13.5062 29.128 16.5575 27.8815 19.2807Z" fill="#190E90"/>
<path d="M66.7953 55.4167C66.4395 57.0353 65.1944 59.1934 64.7942 60.4523C61.0142 72.1871 59.1465 86.2598 61.1921 98.4442C62.5707 106.852 47.4954 110.449 41.6699 110.494C37.4008 110.539 33.0427 109.954 28.9515 108.785C27.0838 108.246 25.3495 107.436 23.5262 106.807C21.3917 106.088 21.2138 105.818 21.1693 103.48C21.1248 102.446 20.858 101.457 20.5467 100.467C19.1682 95.7016 17.7896 90.8908 16.3666 86.1249C15.5661 83.3373 14.7657 80.5498 14.4988 77.6723C13.9652 71.8724 11.8652 73.284 13.9998 67.9337C14.4988 63.5832 13.3096 62.4756 15.6665 57.8446C18.4236 52.4493 24.6474 50.207 27.3331 51.8705C30.1792 55.6922 37.0895 57.0353 41.8033 57.8446C45.4498 58.474 49.3187 57.7547 52.6094 56.0012C54.2104 55.102 55.7223 53.978 56.9675 52.5842C58.0348 51.4152 58.8797 50.0664 59.7691 48.7625C59.8136 48.7176 59.858 48.6726 59.9025 48.6276C59.9914 48.5827 60.0804 48.6276 60.1693 48.6726C62.4817 49.7966 66.6174 51.64 66.8842 54.4725C66.9287 54.6973 66.8842 55.057 66.7953 55.4167Z" fill="#E46466"/>
<path d="M31.3862 56.9181C35.0698 59.9264 39.8637 61.6828 44.6338 61.3154C48.3246 61.0344 51.9061 59.392 54.6772 56.8886C56.0573 55.6151 57.2106 54.1673 58.083 52.5123C58.837 51.1186 59.4681 50.0369 60.0061 48.5124C58.6784 48.3374 56.2431 47.8798 56.0056 47.847C53.8035 47.4753 50.6626 47.2036 49.8396 44.6327C49.6447 44.0336 49.5793 43.4018 49.6002 42.7483C49.5994 42.0077 49.6094 41.3107 49.6949 40.5483C49.7377 40.1671 49.7913 39.8295 49.8341 39.4483L49.8873 38.7404C46.1661 40.9274 40.5456 43.4073 36.8634 41.6951C36.8213 42.6317 36.7791 43.5684 36.7478 44.5486C36.6859 47.2496 35.5651 48.8282 33.2245 50.112C31.9964 51.2106 28.2916 50.9627 26.328 51.5496C27.7645 52.5307 30.1763 55.9263 31.3862 56.9181Z" fill="#FF928F"/>
<path d="M50.8201 26.6729C51.0129 25.2347 51.3893 23.7965 51.1286 22.3798C50.4552 18.7507 47.3872 17.4848 44.8045 15.5872C43.3997 14.5512 42.1565 13.2428 41.1939 11.7711C40.3827 10.5393 39.2689 9.01307 39.1701 7.50925C37.0766 8.68484 34.9519 11.0264 33.507 12.9652C31.8358 15.2852 30.6838 18.401 29.7904 21.0811C29.6828 21.3861 29.586 21.7348 29.4783 22.0398C29.3721 23.6416 29.3953 25.2107 29.4186 26.7799C29.4518 27.4664 29.4417 28.1638 29.4748 28.8503C29.6415 33.2092 30.9842 36.7624 34.1837 39.8481C38.6696 44.2313 43.991 42.3821 48.7714 39.4646C50.2389 38.5393 51.5548 37.1889 52.741 35.6858C51.1616 33.026 50.4455 29.7783 50.8201 26.6729Z" fill="#FF9E9B"/>
<path d="M44.6494 90.1263C43.3153 89.7667 41.9812 89.407 40.6471 89.1822C34.0211 87.9233 27.1728 88.3729 21.6585 84.1466C19.7908 82.7078 18.9998 81.3196 17.3894 78.6164C16.6779 77.9731 16.0888 77.8632 15.9998 77.6384C14.6657 79.9764 14.6445 83.657 14.3332 84.3314C13.6661 85.6802 13.0006 87.7377 11.6665 88.6818C13.89 89.2214 14.8102 88.9574 16.6779 89.9465C20.28 91.8349 23.3039 94.6224 26.6836 96.7356C27.1728 97.0503 27.7064 97.3201 28.1956 97.6348C32.5981 99.9727 37.4008 101.591 42.337 102.446C42.6038 102.491 42.9151 102.536 43.1819 102.58C43.4487 99.0286 43.849 95.6116 44.4271 92.1496C44.516 91.3403 44.2047 90.6209 44.6494 90.1263Z" fill="#FF9E9B"/>
<path d="M23.5686 74.4355C24.9128 74.758 26.2571 75.0805 27.5374 75.5216C33.9639 77.5869 39.7769 81.2598 46.6303 80.1859C48.9551 79.8158 50.3085 78.9747 53.0056 77.3705C53.9363 77.1459 54.5067 77.3314 54.6914 77.1764C54.7582 79.869 53.0339 83.1129 52.9885 83.8544C52.9367 85.3587 52.548 87.4849 53.2748 88.9529C51.0628 88.3627 50.3781 87.6903 48.2663 87.6654C44.2025 87.6004 40.2217 88.6022 36.2471 88.8411C35.6677 88.8835 35.0704 88.8651 34.4909 88.9075C29.5099 88.8544 24.5175 87.9777 19.7695 86.3657C19.5135 86.2774 19.2183 86.168 18.9622 86.0798C20.4094 82.8314 21.6754 79.6378 22.8062 76.3195C23.1111 75.5659 23.7257 75.0829 23.5686 74.4355Z" fill="#FF9E9B"/>
<path d="M25.184 87.4897C25.152 83.7005 24.9472 80.0542 24.5601 76.3273C24.4665 75.3641 24.9258 74.5797 24.1814 74.0966C23.6475 73.7287 21.6206 74.0169 20.9294 73.9524C18.7802 73.8792 16.5682 73.8001 14.3844 73.7555C12.6751 73.7234 10.5985 73.2433 9.03632 73.9567C7.24475 74.7441 5.65347 76.6956 4.87616 78.4366C3.89429 80.6359 3.8453 83.3358 4.96244 85.4763C6.7636 89.0169 11.6013 90.7408 15.3662 89.883C16.5007 89.6388 25.1549 88.7279 25.149 88.1546C25.1743 87.9024 25.165 87.6789 25.184 87.4897Z" fill="#E46466"/>
<path d="M19.6667 53.5435C14.8667 56.4884 7.22222 73.734 4 81.9887L16.6667 80.9849L24.3333 53.5435C24.7778 52.3165 24.4667 50.5986 19.6667 53.5435Z" fill="#E46466"/>
<path d="M69.4636 62.1608C69.0634 59.3732 68.9744 55.1469 66.9288 52.9888C65.906 51.9097 65.4169 51.4601 63.9494 52.0896C62.8821 52.5392 61.6814 53.2136 60.8365 54.0229C59.8581 55.012 59.1911 56.4957 58.4351 57.6647C57.5457 59.0135 56.8342 60.4523 56.2561 61.936C55.0554 64.9933 54.3439 68.1855 53.6324 71.3778C52.7874 75.2893 51.9425 79.2459 51.7646 83.2474C51.6757 85.4954 51.6312 87.7435 51.5868 90.0365C50.4305 89.9915 49.2743 89.9915 48.1181 89.9466C47.4511 89.9466 45.4499 89.5419 44.8718 89.9016C44.1158 90.3962 44.5161 91.2055 44.3382 92.1496C43.7601 95.8814 43.3154 99.4782 43.0485 103.3C43.0485 103.525 43.0041 103.705 43.0041 103.929C42.9596 104.514 51.4978 105.908 52.654 106.222C55.589 107.077 59.28 106.312 61.6814 104.244C63.6381 102.76 64.8832 100.377 65.7281 98.0395C68.2185 91.4303 68.7966 84.2365 69.3747 77.1777C69.597 74.0754 69.8638 70.9282 69.8194 67.8259C69.8638 65.9375 69.7304 64.0491 69.4636 62.1608Z" fill="#E46466"/>
<path d="M35.7554 22.7247C36.0029 21.8755 35.2133 20.7316 34.2631 20.9706C33.4857 21.1662 33.0115 22.2113 33.3363 22.9629C33.8017 23.9106 35.454 23.7264 35.7554 22.7247Z" fill="#190E90"/>
<path d="M38.7184 26.1535C38.4707 26.4473 38.5048 27.3189 38.5378 27.6348C38.6035 28.0816 38.8096 28.5395 39.1235 28.8777C39.1884 28.954 39.3074 29.0632 39.3401 29.1939C39.4707 29.7171 38.3257 29.541 38.0881 29.508C37.4074 29.3544 36.6934 28.6997 37.2427 27.9597C37.6841 27.3394 38.212 26.6974 38.7184 26.1535Z" fill="#E86464"/>
<path d="M37.6684 19.181C37.539 19.2136 37.431 19.1483 37.3662 19.0721C36.7287 18.1685 35.7678 17.6241 34.7747 17.5041C33.7493 17.4386 32.735 17.7866 31.9261 18.5919C31.8183 18.7116 31.5916 18.7224 31.462 18.57C31.3432 18.4611 31.3322 18.2326 31.4941 18.1455C32.4216 17.2641 33.6409 16.8182 34.8066 16.8946C35.9832 17.0146 37.1061 17.6571 37.8732 18.713C37.9596 18.8763 37.9598 19.0613 37.7979 19.1484C37.7548 19.1593 37.7116 19.1701 37.6684 19.181Z" fill="#190E90"/>
<path d="M46.2778 23.9276C46.5254 23.0783 45.7357 21.9345 44.7855 22.1735C44.0081 22.3691 43.534 23.4142 43.8588 24.1658C44.3674 25.1026 45.9765 24.9293 46.2778 23.9276Z" fill="#190E90"/>
<path d="M49.3135 20.6584C49.184 20.691 49.076 20.6257 49.0112 20.5495C48.3737 19.646 47.4128 19.1015 46.4197 18.9816C45.3943 18.916 44.38 19.2641 43.5711 20.0693C43.4633 20.189 43.2366 20.1998 43.107 20.0474C42.9882 19.9386 42.9773 19.71 43.1391 19.6229C44.0667 18.7415 45.286 18.2956 46.4517 18.372C47.6282 18.4921 48.7511 19.1345 49.5182 20.1904C49.6047 20.3537 49.6048 20.5388 49.443 20.6258C49.3566 20.6475 49.3135 20.6584 49.3135 20.6584Z" fill="#190E90"/>
<path d="M37.603 33.8283C37.6893 33.8066 37.7865 33.8284 37.8836 33.8502C39.0388 34.4381 40.3122 34.395 41.8873 33.7208C42.0923 33.623 42.3514 33.7427 42.4487 33.9495C42.546 34.1563 42.4274 34.4174 42.2225 34.5152C40.4424 35.2872 38.8884 35.3085 37.5281 34.6335C37.323 34.5464 37.258 34.2852 37.3442 34.0785C37.3981 33.9262 37.5167 33.8501 37.603 33.8283Z" fill="#E86464"/>
<path d="M34.9045 26.8724C32.4429 27.4928 29.9584 25.9893 29.3413 23.5058C28.7242 21.0224 30.2236 18.5611 32.6851 17.9406C35.1467 17.3202 37.6312 18.8237 38.2483 21.3072C38.8654 23.7906 37.3229 26.2628 34.9045 26.8724ZM32.8042 18.4199C30.6018 18.975 29.2751 21.2076 29.8272 23.4297C30.3793 25.6517 32.5938 26.9918 34.7962 26.4367C36.9987 25.8815 38.3254 23.6489 37.7733 21.4269C37.2211 19.2049 35.0067 17.8648 32.8042 18.4199Z" fill="white"/>
<path d="M46.4529 28.513C43.9914 29.1334 41.5068 27.6299 40.8898 25.1465C40.2727 22.663 41.7612 20.1581 44.2228 19.5377C46.6843 18.9173 49.1689 20.4208 49.786 22.9042C50.403 25.3877 48.8713 27.9035 46.4529 28.513ZM44.3418 20.017C42.1394 20.5721 40.8127 22.8047 41.3648 25.0267C41.9169 27.2488 44.1314 28.5889 46.3339 28.0337C48.5363 27.4786 49.863 25.246 49.3109 23.024C48.7588 20.8019 46.5443 19.4618 44.3418 20.017Z" fill="white"/>
<path d="M41.194 23.2113L40.7514 23.2764C40.7297 23.1893 40.6109 23.0804 40.4489 22.9824C39.7684 22.6446 38.9586 22.5245 38.2139 22.6655C38.2139 22.6655 38.2462 22.6111 38.2354 22.5676C38.2246 22.5241 38.2137 22.4805 38.1597 22.4478L37.8362 22.8068C37.7714 22.7306 37.6957 22.6108 37.7603 22.502C37.8142 22.3497 37.9652 22.2192 38.1055 22.2302C38.9797 22.0565 39.8759 22.1549 40.632 22.6124C40.7724 22.6234 41.1072 22.863 41.194 23.2113Z" fill="white"/>
<path d="M49.6484 23.8096L49.6841 24.2539L58.0205 23.5917L57.9849 23.1475L49.6484 23.8096Z" fill="white"/>
<path d="M64.7941 51.8646C57.1453 54.2925 55.0108 65.6226 53.5877 72.4567C52.4315 77.9868 51.6755 84.4162 51.3643 90.0363" stroke="white" stroke-width="1.3" stroke-miterlimit="10" stroke-linecap="round"/>
<path d="M20.6665 73.6227C21.3332 71.8379 22.6665 67.9337 22.6665 66.5951" stroke="white" stroke-linecap="round" stroke-linejoin="round"/>
<path d="M25.6665 88.3474C27.4443 88.9051 32.5332 89.7529 38.6665 88.682C46.3332 87.3434 49.9998 88.0127 50.9998 88.3474" stroke="white" stroke-linecap="round" stroke-linejoin="round"/>
<path d="M63.3266 93.633C62.9709 92.6888 62.2149 91.9245 61.37 91.4299C59.0575 90.0811 56.3894 89.9912 53.7656 89.9013C50.9641 89.8114 48.118 89.9013 45.3164 90.1261C45.183 90.1261 45.0051 90.171 44.8717 90.261C44.7383 90.3509 44.6938 90.5307 44.6938 90.6656C43.671 95.0718 43.1818 99.5678 43.3153 104.109C45.183 104.828 47.4065 105.233 49.4076 105.548C53.0986 106.177 56.7451 107.211 60.1248 105.143C61.6368 104.199 62.8819 102.94 64.1716 101.726" stroke="white" stroke-width="1.3" stroke-miterlimit="10" stroke-linecap="round"/>
<path d="M9.62109 74.1053C12.072 73.6985 14.6234 73.5556 17.1496 73.6649C18.2871 73.7078 19.4119 73.8768 20.543 73.9827C21.297 74.0533 22.0857 74.0954 22.868 74.2005C23.3079 74.2417 23.7258 74.1853 24.1311 74.2551C24.7815 74.4115 24.6589 74.6864 24.665 75.2596C24.6174 76.687 24.6609 78.1547 24.6761 79.5879C24.7349 82.4888 24.9194 85.4014 25.2012 88.2914C22.986 88.5612 20.689 89.0142 18.5679 89.611" stroke="white" stroke-width="1.3" stroke-miterlimit="10" stroke-linecap="round"/>
</svg>
